<svg width="706" height="546" viewBox="0 0 706 546" fill="none" xmlns="http://www.w3.org/2000/svg">
<path d="M217 512.74C217 512.459 216.32 508.004 215.489 502.84C214.658 497.676 211.509 476.276 208.492 455.287C205.475 434.298 202.705 415.916 202.337 414.438C201.969 412.96 197.243 402.786 191.834 391.828C182 371.905 182 371.905 182 376.949C182 379.723 182.711 388.452 183.58 396.347C184.449 404.242 184.917 411.918 184.619 413.406C184.321 414.894 179.372 423.68 173.621 432.931C167.87 442.182 157.39 459.174 150.332 470.691C143.274 482.208 137.091 491.579 136.591 491.514C136.091 491.449 130.322 479.55 123.769 465.073C117.216 450.596 103.602 420.526 93.515 398.251C83.428 375.976 72.263 351.226 68.705 343.251C65.147 335.276 56.52 316.151 49.533 300.751C42.546 285.351 31.296 260.376 24.532 245.251C17.768 230.126 9.482 211.814 6.117 204.559C2.752 197.304 0 190.74 0 189.972C0 189.204 31.163 158.036 69.25 120.709C107.337 83.382 150.493 40.952 165.15 26.421L191.8 0L207.65 8.746C216.368 13.556 224.85 18.416 226.5 19.547C228.15 20.678 229.631 21.693 229.792 21.802C229.953 21.911 229.415 23.745 228.598 25.876C227.781 28.007 221.415 46.401 214.452 66.751C207.489 87.101 197.075 117.476 191.31 134.251C185.545 151.026 176.325 178.026 170.82 194.251C159.185 228.545 159.704 219.536 166.652 266.729C171.213 297.707 171.212 297.707 188.959 332.229C230.524 413.084 226.191 401.779 232.098 444.751C234.971 465.651 237.633 483.113 238.014 483.555C238.942 484.631 275.429 477.543 280.5 475.302C282.7 474.33 288.775 470.391 294 466.549C330.47 439.732 352.516 424.235 353.602 424.652C355.014 425.194 391.172 451.268 409 464.601C415.325 469.331 422.018 473.935 423.874 474.832C425.73 475.729 436.025 478.224 446.752 480.377C457.479 482.529 466.634 484.524 467.098 484.811C468.204 485.495 468.339 484.737 472.037 457.251C473.776 444.326 476.279 427.109 477.598 418.992C479.976 404.36 480.066 404.094 488.122 387.992C492.591 379.059 501.306 362.076 507.488 350.251C537.084 293.64 534.006 300.625 536.559 284.281C537.808 276.289 540.267 259.604 542.024 247.203L545.219 224.656L532.682 187.703C525.786 167.379 514.208 133.426 506.953 112.251C475.663 20.926 475.965 21.855 477.266 20.606C478.378 19.539 483.629 16.584 506.653 4.07001L513.805 0.182007L541.774 27.467C632.436 115.911 706 188.668 706 189.891C706 190.666 704.481 194.327 702.624 198.026C700.767 201.725 696.997 209.926 694.247 216.251C691.497 222.576 683.959 239.451 677.496 253.751C671.033 268.051 662.709 286.501 658.999 294.751C655.289 303.001 645.951 323.701 638.247 340.751C620.047 381.031 574.907 481.326 572.114 487.689C570.231 491.979 569.758 492.438 568.513 491.189C567.725 490.398 562.853 482.776 557.686 474.251C552.519 465.726 542.982 450.201 536.493 439.751C530.004 429.301 523.803 419.262 522.714 417.443C520.952 414.5 520.811 413.067 521.425 404.443C521.805 399.112 522.777 390.286 523.585 384.828C524.393 379.37 524.682 374.532 524.226 374.077C522.94 372.791 504.412 409.862 503.147 416.251C502.548 419.276 500.898 429.851 499.48 439.751C498.062 449.651 495.124 470.044 492.951 485.07C490.778 500.096 489 512.583 489 512.82C489 513.871 483.083 512.98 464.94 509.199C454.248 506.971 438.884 503.877 430.798 502.323C413.829 499.063 413.498 498.898 393.5 483.86C372.376 467.975 375.036 468.58 363.715 477.089C358.474 481.028 353.74 484.251 353.195 484.251C352.65 484.251 347.931 481.101 342.708 477.251C337.485 473.401 332.66 470.251 331.985 470.251C331.31 470.251 323.05 475.939 313.629 482.89C304.208 489.841 294.25 496.556 291.5 497.813C288.691 499.096 277.077 501.911 265 504.234C253.175 506.509 238.359 509.469 232.076 510.811C220.706 513.24 217 513.713 217 512.74Z" fill="#FFBC66"/>
<path d="M332 529.664C320.725 521.138 310.43 513.104 309.123 511.808C306.746 509.453 306.746 509.452 314.123 504.048C329.301 492.928 326.502 493.234 337.154 501.53C351.839 512.967 352.275 513.23 354.531 512.01C355.614 511.424 361.178 507.301 366.897 502.848C372.616 498.395 377.426 494.751 377.586 494.751C377.746 494.751 382.668 498.049 388.523 502.079C398.959 509.263 399.133 509.447 397.372 511.393C395.616 513.333 353.534 545.293 352.847 545.208C352.656 545.184 343.275 538.189 332 529.664Z" fill="#FFBC66"/>
<path d="M434 211.715C423.825 208.744 413.812 205.831 411.75 205.242C409.688 204.653 408 203.672 408 203.062C408 201.73 432.924 168.251 433.916 168.251C434.958 168.251 459.147 174.985 470.25 178.367C475.612 180 480 181.85 480 182.478C480 184.121 454.695 217.259 453.5 217.181C452.95 217.145 444.175 214.686 434 211.715Z" fill="#FFBC66"/>
<path d="M239.801 202.001C227.695 185.927 224.428 181.251 225.304 181.251C225.598 181.251 236.062 178.323 248.559 174.745C265.98 169.756 271.599 168.503 272.647 169.373C273.399 169.997 279.581 177.828 286.384 186.775C298.732 203.014 298.749 203.045 296.275 204.172C293.801 205.299 253.337 217.251 251.995 217.251C251.605 217.251 246.118 210.389 239.801 202.001Z" fill="#FFBC66"/>
<path fill-rule="evenodd" clip-rule="evenodd" d="M290.099 363.677C295.496 368.685 331.987 400.185 333.973 401.551C336.065 402.99 339.064 403.248 353.473 403.235L370.5 403.22L393.5 383.144C415.955 363.544 416.497 362.981 416.358 359.409C416.17 354.573 410.15 323.98 409.223 323.149C407.79 321.864 356.041 305.119 353.304 305.054C350.303 304.983 298.492 321.599 296.462 323.283C295.795 323.836 294.963 326.193 294.613 328.52C294.263 330.847 292.789 339.417 291.337 347.564C289.079 360.232 288.9 362.565 290.099 363.677ZM313 340.765C313 342.61 313.439 345.275 313.975 346.686C314.95 349.251 314.951 349.251 332.93 349.251C350.909 349.251 350.909 349.251 351.536 345.909C351.881 344.071 352.014 341.258 351.832 339.659C351.5 336.751 351.5 336.751 338.5 336.44H338.5C331.35 336.269 322.688 336.418 319.25 336.77C315.459 337.158 313.967 337.311 313.381 338.12C313 338.645 313 339.445 313 340.765Z" fill="#FFBC66"/>
</svg>
