<?xml version="1.0" standalone="no"?>
<!DOCTYPE svg PUBLIC "-//W3C//DTD SVG 20010904//EN"
 "http://www.w3.org/TR/2001/REC-SVG-20010904/DTD/svg10.dtd">
<svg version="1.0" xmlns="http://www.w3.org/2000/svg"
 width="256.000000pt" height="256.000000pt" viewBox="0 0 256.000000 256.000000"
 preserveAspectRatio="xMidYMid meet">

<g transform="translate(0.000000,256.000000) scale(0.100000,-0.100000)"
fill="#ffffff" stroke="none">
<path d="M356 1947 l-348 -342 236 -523 c130 -288 242 -534 249 -547 12 -23
16 -18 99 118 l88 142 -6 70 -5 70 36 -69 c32 -61 39 -88 61 -240 14 -94 27
-176 29 -182 2 -7 46 -2 135 16 134 28 141 31 252 113 l27 20 40 -27 40 -28
36 28 36 27 27 -20 c109 -81 117 -84 251 -112 92 -20 134 -25 136 -17 2 6 15
88 29 183 22 150 30 180 61 243 20 40 38 70 39 69 2 -2 -1 -35 -6 -72 l-10
-68 53 -87 c130 -213 127 -209 137 -182 5 14 93 209 195 435 102 226 208 462
237 525 l52 115 -348 342 -348 342 -65 -36 c-37 -20 -67 -37 -69 -38 -3 -3 -3
-2 139 -418 l109 -318 -20 -133 -19 -133 -100 -194 c-99 -193 -100 -195 -116
-309 -24 -174 -24 -172 -48 -167 -12 3 -47 10 -78 17 -46 9 -77 27 -184 105
l-128 94 -31 -21 c-17 -12 -74 -54 -126 -92 -91 -67 -124 -82 -222 -100 -44
-8 -40 -19 -64 159 l-16 120 -99 194 -99 193 -21 132 -20 131 110 320 c60 176
117 340 125 364 19 52 19 53 -64 99 l-56 31 -348 -342z"/>
<path d="M902 1657 c-82 -23 -82 -21 -25 -97 43 -58 44 -58 156 -25 l58 17
-24 31 c-13 18 -34 47 -47 65 -27 37 -23 37 -118 9z"/>
<path d="M1526 1618 c-24 -35 -43 -64 -42 -66 5 -5 146 -42 160 -42 14 0 96
101 96 118 0 8 -139 52 -163 52 -3 0 -26 -28 -51 -62z"/>
<path d="M1185 1158 c-49 -16 -94 -34 -100 -39 -5 -5 -15 -39 -21 -74 l-11
-65 86 -75 86 -75 60 0 60 0 88 76 c48 42 86 82 83 89 -2 7 -7 33 -11 58 -4
25 -12 53 -19 60 -9 12 -191 79 -206 76 -3 -1 -45 -14 -95 -31z m95 -108 c0
-18 -7 -20 -70 -20 -63 0 -70 2 -70 20 0 18 7 20 70 20 63 0 70 -2 70 -20z"/>
<path d="M1153 477 c-18 -12 -33 -24 -33 -27 0 -9 152 -123 165 -123 6 0 46
26 89 58 l78 59 -33 28 c-18 15 -38 28 -44 28 -5 -1 -26 -14 -45 -30 -19 -17
-38 -30 -43 -30 -5 0 -26 14 -47 30 -44 35 -45 35 -87 7z"/>
</g>
</svg>
