<svg width="764" height="92" viewBox="0 0 764 92" fill="none" xmlns="http://www.w3.org/2000/svg">
<path d="M318 90.305L307.5 89.7509L307.239 46.3169C307.034 12.2329 307.25 2.70994 308.239 2.08194C310.377 0.724939 330.772 1.08395 332.036 2.50095C332.649 3.18895 338.713 13.6509 345.511 25.7509C352.309 37.8509 358.688 49.1009 359.686 50.7509C361.476 53.7109 361.507 53.4029 362 27.7509L362.5 1.75095H373.5H384.5L384.76 46.0009L385.021 90.2509H373.057C361.792 90.2509 361 90.1199 359.491 88.0009C358.609 86.7639 352.101 75.4009 345.029 62.7509C337.957 50.1009 331.795 39.865 331.335 40.003C330.589 40.228 330.133 54.9369 330.034 82.0009C330.015 87.0889 329.663 91.163 329.25 91.055C328.837 90.947 323.775 90.61 318 90.305Z" fill="#FFBC66"/>
<path d="M715 54.7509V19.2509H701.5H688V10.9009C688 2.5509 688 2.5509 697.154 1.9009C708.922 1.0659 736.271 1.06786 751.843 1.90486C764 2.55886 764 2.55886 764 10.9049V19.2509H751H738L737.783 38.0009C737.664 48.3129 737.64 58.7759 737.73 61.2509C737.82 63.7259 737.638 71.2639 737.326 78.0009L736.759 90.2509H725.88H715V54.7509Z" fill="#FFBC66"/>
<path d="M523.172 82.501C521.537 78.238 516.511 65.076 512.004 53.251C507.497 41.426 501.376 25.467 498.404 17.787C495.432 10.107 493 3.29896 493 2.65796C493 1.82696 496.581 1.52995 505.498 1.62195C512.534 1.69495 517.997 2.16198 517.998 2.69098C518.001 4.46698 537.268 59.2349 538.465 60.8719C539.458 62.2299 541.43 57.285 550.022 31.88L560.381 1.25098H569.065C579.154 1.25098 584 2.02998 584 3.65198C584 4.28498 578.807 18.517 572.46 35.277C566.113 52.037 558.845 71.264 556.31 78.001L551.701 90.251H538.923C526.145 90.251 526.145 90.251 523.172 82.501Z" fill="#FFBC66"/>
<path d="M432 54.7509V19.2509H418.5H405V10.0969V0.941895L417.75 1.5929C424.763 1.9509 441.862 2.24489 455.75 2.24689L481 2.25092V10.7509V19.2509H468H455V47.0999C455 62.4169 454.709 78.3919 454.353 82.5999C453.706 90.2509 453.706 90.2509 442.853 90.2509H432V54.7509Z" fill="#FFBC66"/>
<path d="M603 45.751V1.25098H625.843C638.407 1.25098 654.157 1.54497 660.843 1.90497C673 2.55897 673 2.55897 673 10.905V19.251H649.625C626.25 19.251 626.25 19.251 625.625 22.376C624.83 26.352 624.821 32.62 625.607 34.669C626.129 36.029 628.703 36.251 643.99 36.251C664.494 36.251 662.961 35.348 662.986 47.437C663 54.123 663 54.123 644.849 54.123C630.945 54.123 626.502 54.43 625.864 55.437C625.406 56.16 625.023 60.168 625.015 64.345C625 71.939 625 71.939 640.159 72.595C648.496 72.956 659.296 73.251 664.159 73.251C673 73.251 673 73.251 673 81.751V90.251H638H603V45.751Z" fill="#FFBC66"/>
<path fill-rule="evenodd" clip-rule="evenodd" d="M202.769 78.3231C204.399 82.9121 209.686 88.0211 214.625 89.7821C219.322 91.4561 262.408 91.8211 268.118 90.2351C274.022 88.5951 278.33 85.0891 281 79.7501C283.488 74.7751 283.5 74.6181 283.5 46.7511C283.5 17.2971 283.112 14.1561 278.703 7.87508C274.658 2.11408 269.72 0.939048 247.5 0.452049C216.494 -0.227952 208.314 1.94206 203.688 12.0741C201.666 16.5021 201.551 18.2951 201.526 45.7511C201.507 66.6961 201.853 75.7431 202.769 78.3231ZM224.198 41.9631C223.857 66.5701 224.421 71.1261 228.043 73.0191C229.769 73.9211 234.412 74.2211 243.648 74.0271C251.827 73.8555 256.169 74.1432 258.467 72.1148C261.406 69.5206 261 63.138 261 47.1611C261 34.6321 260.558 23.2191 260.018 21.7981C258.463 17.7091 254.99 16.9931 240.407 17.7551C233.206 18.1311 226.681 18.8301 225.907 19.3071C224.783 20.0001 224.439 24.5581 224.198 41.9631Z" fill="#FFBC66"/>
<path fill-rule="evenodd" clip-rule="evenodd" d="M1.25 2.20174C0.27 2.23974 0 11.7437 0 46.2507V90.2507H10.855C21.71 90.2507 21.711 90.2507 22.348 83.5007C22.699 79.7877 22.989 74.2168 22.993 71.1198C23 65.4888 23 65.4877 42.25 65.0867C59.821 64.7207 61.913 64.4847 66.227 62.3897C76.065 57.6127 78.426 51.8587 78.386 32.7507C78.356 18.3357 77.025 12.9858 72.211 7.93276C67.109 2.57676 65.54 2.35076 32.738 2.24776C16.107 2.19576 1.938 2.17474 1.25 2.20174ZM23 33.181C23 46.866 23.04 47.117 25.25 47.431C29.445 48.027 51.49 47.043 53.103 46.188C55.118 45.12 56.18 35.988 55.338 26.973L55.3375 26.9675C54.731 20.469 54.731 20.4688 51.116 19.871C49.127 19.542 41.988 19.268 35.25 19.262L23 19.251V33.181Z" fill="#FFBC66"/>
<path fill-rule="evenodd" clip-rule="evenodd" d="M101.917 3.35087C101.429 4.12087 101.023 23.9879 101.015 47.5009L101 90.2509H112.5H124V76.7509V63.2509H132.912C141.824 63.2509 141.825 63.2509 148.506 76.0009C152.181 83.0139 155.52 89.1029 155.926 89.5329C156.332 89.9629 162.108 90.1879 168.762 90.0329L180.86 89.7509L174.404 78.7509C165.445 63.4879 165.225 63.0089 166.903 62.4499C169.297 61.6519 176.063 55.0289 177.755 51.8259C179.037 49.3999 179.393 45.5829 179.44 33.7509C179.499 19.0289 179.444 18.6399 176.5 12.7509C173.967 7.68389 172.722 6.36189 168.5 4.25089C163.5 1.75089 163.5 1.75087 133.152 1.85087C108.308 1.93287 102.643 2.20487 101.917 3.35087ZM124 32.181C124 44.78 124.058 45.124 126.25 45.597C129.864 46.376 154.801 45.783 155.69 44.897C156.135 44.453 156.5 38.86 156.5 32.469C156.5 26.233 156.779 22.9801 155.288 21.2763C153.443 19.1687 148.89 19.4317 137.75 19.351L124 19.251V32.181Z" fill="#FFBC66"/>
</svg>
